<svg width="402" height="402" viewBox="0 0 402 402" fill="none" xmlns="http://www.w3.org/2000/svg">
<rect width="402" height="402" fill="#384B8F"/>
<rect x="49" y="54" width="89" height="293" fill="#8494CD" fill-opacity="0.5"/>
<rect x="156" y="54" width="89" height="293" fill="#8494CD" fill-opacity="0.5"/>
<rect x="263" y="54" width="89" height="293" fill="#8494CD" fill-opacity="0.5"/>
<rect x="54" y="179" width="79" height="163" stroke="white" stroke-width="10"/>
<rect x="347" y="179" width="163" height="186" transform="rotate(90 347 179)" stroke="white" stroke-width="10"/>
<rect x="347" y="59" width="78" height="293" transform="rotate(90 347 59)" stroke="#FF8967" stroke-width="10"/>
<path d="M19.63 385V378.81H23.42V379.83H20.86V381.33H23.1V382.35H20.86V385H19.63ZM26.84 378.95C26.84 379.19 26.7633 379.38 26.61 379.52C26.4567 379.66 26.2733 379.73 26.06 379.73C25.8467 379.73 25.6633 379.66 25.51 379.52C25.3633 379.38 25.29 379.19 25.29 378.95C25.29 378.703 25.3633 378.51 25.51 378.37C25.6633 378.23 25.8467 378.16 26.06 378.16C26.2733 378.16 26.4567 378.23 26.61 378.37C26.7633 378.51 26.84 378.703 26.84 378.95ZM28.67 384.8C28.4167 384.92 28.1767 385 27.95 385.04C27.73 385.087 27.5267 385.11 27.34 385.11C27.02 385.11 26.75 385.063 26.53 384.97C26.3167 384.877 26.1433 384.743 26.01 384.57C25.8833 384.39 25.7933 384.173 25.74 383.92C25.6867 383.667 25.66 383.377 25.66 383.05V381.32H24.36V380.3H26.89V383.21C26.89 383.49 26.94 383.7 27.04 383.84C27.1467 383.973 27.32 384.04 27.56 384.04C27.6733 384.04 27.81 384.027 27.97 384C28.13 383.967 28.31 383.903 28.51 383.81L28.67 384.8ZM29.44 382.65C29.44 382.31 29.4933 381.99 29.6 381.69C29.7067 381.39 29.87 381.13 30.09 380.91C30.31 380.683 30.5867 380.507 30.92 380.38C31.26 380.247 31.6633 380.18 32.13 380.18C32.41 380.18 32.6633 380.2 32.89 380.24C33.1167 380.28 33.3467 380.347 33.58 380.44L33.31 381.43C33.1767 381.383 33.0267 381.343 32.86 381.31C32.7 381.27 32.4933 381.25 32.24 381.25C31.9467 381.25 31.7 381.287 31.5 381.36C31.3067 381.427 31.15 381.523 31.03 381.65C30.91 381.77 30.8233 381.917 30.77 382.09C30.7167 382.263 30.69 382.45 30.69 382.65C30.69 383.083 30.81 383.423 31.05 383.67C31.2967 383.917 31.7133 384.04 32.3 384.04C32.4933 384.04 32.6933 384.027 32.9 384C33.1133 383.973 33.3067 383.93 33.48 383.87L33.66 384.88C33.4867 384.947 33.2767 385 33.03 385.04C32.7833 385.087 32.4933 385.11 32.16 385.11C31.68 385.11 31.2667 385.047 30.92 384.92C30.58 384.793 30.3 384.62 30.08 384.4C29.86 384.18 29.6967 383.92 29.59 383.62C29.49 383.32 29.44 382.997 29.44 382.65ZM34.63 385V378.27L35.86 378.06V380.34C35.96 380.307 36.08 380.277 36.22 380.25C36.36 380.217 36.4833 380.2 36.59 380.2C36.9367 380.2 37.2267 380.253 37.46 380.36C37.6933 380.46 37.88 380.607 38.02 380.8C38.16 380.987 38.26 381.213 38.32 381.48C38.38 381.74 38.41 382.03 38.41 382.35V385H37.18V382.51C37.18 382.07 37.13 381.753 37.03 381.56C36.93 381.367 36.74 381.27 36.46 381.27C36.3467 381.27 36.2333 381.283 36.12 381.31C36.0133 381.337 35.9267 381.36 35.86 381.38V385H34.63ZM39.31 382.69C39.31 382.277 39.3733 381.913 39.5 381.6C39.6267 381.287 39.7933 381.027 40 380.82C40.2067 380.607 40.4433 380.447 40.71 380.34C40.9767 380.233 41.25 380.18 41.53 380.18C42.2233 380.18 42.75 380.387 43.11 380.8C43.47 381.207 43.65 381.803 43.65 382.59C43.65 382.67 43.6467 382.753 43.64 382.84C43.64 382.927 43.6367 382.997 43.63 383.05H40.58C40.58 383.357 40.7067 383.6 40.96 383.78C41.2133 383.953 41.54 384.04 41.94 384.04C42.1867 384.04 42.42 384.013 42.64 383.96C42.8667 383.907 43.0567 383.853 43.21 383.8L43.38 384.85C43.1667 384.923 42.94 384.983 42.7 385.03C42.46 385.083 42.19 385.11 41.89 385.11C41.49 385.11 41.13 385.06 40.81 384.96C40.4967 384.853 40.2267 384.7 40 384.5C39.78 384.293 39.61 384.04 39.49 383.74C39.37 383.44 39.31 383.09 39.31 382.69ZM42.46 382.2C42.46 382.073 42.4433 381.953 42.41 381.84C42.3767 381.72 42.3233 381.613 42.25 381.52C42.1767 381.427 42.0833 381.353 41.97 381.3C41.8567 381.24 41.7167 381.21 41.55 381.21C41.39 381.21 41.25 381.237 41.13 381.29C41.0167 381.343 40.92 381.417 40.84 381.51C40.7667 381.603 40.7067 381.71 40.66 381.83C40.62 381.95 40.5933 382.073 40.58 382.2H42.46ZM46.28 384.07C46.58 384.07 46.81 384.05 46.97 384.01C47.13 383.963 47.21 383.873 47.21 383.74C47.21 383.653 47.1833 383.58 47.13 383.52C47.0833 383.46 47.0133 383.41 46.92 383.37C46.8333 383.323 46.73 383.28 46.61 383.24C46.4967 383.2 46.3767 383.16 46.25 383.12C46.07 383.067 45.8867 383.007 45.7 382.94C45.5133 382.867 45.3433 382.777 45.19 382.67C45.0367 382.563 44.91 382.43 44.81 382.27C44.71 382.103 44.66 381.897 44.66 381.65C44.66 381.45 44.6967 381.263 44.77 381.09C44.85 380.91 44.97 380.753 45.13 380.62C45.2967 380.48 45.5067 380.373 45.76 380.3C46.0133 380.22 46.3167 380.18 46.67 380.18C46.9767 380.18 47.26 380.203 47.52 380.25C47.7867 380.297 48.0167 380.363 48.21 380.45L48.02 381.49C47.9067 381.457 47.73 381.403 47.49 381.33C47.25 381.25 46.98 381.21 46.68 381.21C46.3667 381.21 46.1533 381.25 46.04 381.33C45.9333 381.403 45.88 381.483 45.88 381.57C45.88 381.643 45.9033 381.71 45.95 381.77C46.0033 381.823 46.07 381.873 46.15 381.92C46.2367 381.967 46.3333 382.013 46.44 382.06C46.5533 382.1 46.6733 382.14 46.8 382.18C46.98 382.24 47.1667 382.307 47.36 382.38C47.5533 382.453 47.7267 382.547 47.88 382.66C48.04 382.767 48.17 382.907 48.27 383.08C48.37 383.247 48.42 383.453 48.42 383.7C48.42 383.893 48.3833 384.077 48.31 384.25C48.2367 384.423 48.1133 384.573 47.94 384.7C47.7733 384.827 47.5533 384.927 47.28 385C47.0067 385.073 46.67 385.11 46.27 385.11C45.8633 385.11 45.5167 385.063 45.23 384.97C44.9433 384.877 44.7133 384.793 44.54 384.72L44.73 383.69C44.9633 383.783 45.21 383.87 45.47 383.95C45.7367 384.03 46.0067 384.07 46.28 384.07ZM54.44 382.65C54.44 382.31 54.4933 381.99 54.6 381.69C54.7067 381.39 54.87 381.13 55.09 380.91C55.31 380.683 55.5867 380.507 55.92 380.38C56.26 380.247 56.6633 380.18 57.13 380.18C57.41 380.18 57.6633 380.2 57.89 380.24C58.1167 380.28 58.3467 380.347 58.58 380.44L58.31 381.43C58.1767 381.383 58.0267 381.343 57.86 381.31C57.7 381.27 57.4933 381.25 57.24 381.25C56.9467 381.25 56.7 381.287 56.5 381.36C56.3067 381.427 56.15 381.523 56.03 381.65C55.91 381.77 55.8233 381.917 55.77 382.09C55.7167 382.263 55.69 382.45 55.69 382.65C55.69 383.083 55.81 383.423 56.05 383.67C56.2967 383.917 56.7133 384.04 57.3 384.04C57.4933 384.04 57.6933 384.027 57.9 384C58.1133 383.973 58.3067 383.93 58.48 383.87L58.66 384.88C58.4867 384.947 58.2767 385 58.03 385.04C57.7833 385.087 57.4933 385.11 57.16 385.11C56.68 385.11 56.2667 385.047 55.92 384.92C55.58 384.793 55.3 384.62 55.08 384.4C54.86 384.18 54.6967 383.92 54.59 383.62C54.49 383.32 54.44 382.997 54.44 382.65ZM61.51 384.12C61.6433 384.12 61.7733 384.12 61.9 384.12C62.0267 384.113 62.1367 384.103 62.23 384.09V383.01C62.15 382.997 62.0533 382.987 61.94 382.98C61.8267 382.967 61.7233 382.96 61.63 382.96C61.5033 382.96 61.38 382.97 61.26 382.99C61.14 383.003 61.0333 383.03 60.94 383.07C60.8533 383.11 60.7833 383.167 60.73 383.24C60.6767 383.313 60.65 383.41 60.65 383.53C60.65 383.743 60.73 383.897 60.89 383.99C61.05 384.077 61.2567 384.12 61.51 384.12ZM61.4 380.18C61.7867 380.18 62.1067 380.227 62.36 380.32C62.62 380.407 62.8267 380.533 62.98 380.7C63.1333 380.86 63.2433 381.06 63.31 381.3C63.3767 381.533 63.41 381.797 63.41 382.09V384.89C63.23 384.93 62.9633 384.977 62.61 385.03C62.2567 385.083 61.86 385.11 61.42 385.11C61.12 385.11 60.8467 385.083 60.6 385.03C60.36 384.977 60.1533 384.89 59.98 384.77C59.8067 384.643 59.6733 384.483 59.58 384.29C59.4867 384.09 59.44 383.847 59.44 383.56C59.44 383.287 59.4933 383.057 59.6 382.87C59.7067 382.683 59.85 382.533 60.03 382.42C60.21 382.307 60.4167 382.227 60.65 382.18C60.8833 382.127 61.1267 382.1 61.38 382.1C61.7 382.1 61.9833 382.127 62.23 382.18V382.03C62.23 381.797 62.1567 381.603 62.01 381.45C61.8633 381.29 61.61 381.21 61.25 381.21C61.0167 381.21 60.79 381.227 60.57 381.26C60.3567 381.293 60.1833 381.333 60.05 381.38L59.88 380.39C60.0333 380.337 60.25 380.29 60.53 380.25C60.81 380.203 61.1 380.18 61.4 380.18ZM68.37 381.55C68.29 381.53 68.1933 381.51 68.08 381.49C67.9733 381.47 67.8633 381.453 67.75 381.44C67.6367 381.42 67.5267 381.407 67.42 381.4C67.3133 381.393 67.2233 381.39 67.15 381.39C66.9767 381.39 66.8067 381.4 66.64 381.42C66.4733 381.433 66.3033 381.463 66.13 381.51V385H64.89V380.61C65.2167 380.49 65.55 380.393 65.89 380.32C66.2367 380.247 66.64 380.21 67.1 380.21C67.1667 380.21 67.26 380.213 67.38 380.22C67.5067 380.227 67.64 380.24 67.78 380.26C67.92 380.273 68.06 380.293 68.2 380.32C68.3467 380.34 68.4767 380.37 68.59 380.41L68.37 381.55ZM73.37 381.55C73.29 381.53 73.1933 381.51 73.08 381.49C72.9733 381.47 72.8633 381.453 72.75 381.44C72.6367 381.42 72.5267 381.407 72.42 381.4C72.3133 381.393 72.2233 381.39 72.15 381.39C71.9767 381.39 71.8067 381.4 71.64 381.42C71.4733 381.433 71.3033 381.463 71.13 381.51V385H69.89V380.61C70.2167 380.49 70.55 380.393 70.89 380.32C71.2367 380.247 71.64 380.21 72.1 380.21C72.1667 380.21 72.26 380.213 72.38 380.22C72.5067 380.227 72.64 380.24 72.78 380.26C72.92 380.273 73.06 380.293 73.2 380.32C73.3467 380.34 73.4767 380.37 73.59 380.41L73.37 381.55ZM76.84 378.95C76.84 379.19 76.7633 379.38 76.61 379.52C76.4567 379.66 76.2733 379.73 76.06 379.73C75.8467 379.73 75.6633 379.66 75.51 379.52C75.3633 379.38 75.29 379.19 75.29 378.95C75.29 378.703 75.3633 378.51 75.51 378.37C75.6633 378.23 75.8467 378.16 76.06 378.16C76.2733 378.16 76.4567 378.23 76.61 378.37C76.7633 378.51 76.84 378.703 76.84 378.95ZM78.67 384.8C78.4167 384.92 78.1767 385 77.95 385.04C77.73 385.087 77.5267 385.11 77.34 385.11C77.02 385.11 76.75 385.063 76.53 384.97C76.3167 384.877 76.1433 384.743 76.01 384.57C75.8833 384.39 75.7933 384.173 75.74 383.92C75.6867 383.667 75.66 383.377 75.66 383.05V381.32H74.36V380.3H76.89V383.21C76.89 383.49 76.94 383.7 77.04 383.84C77.1467 383.973 77.32 384.04 77.56 384.04C77.6733 384.04 77.81 384.027 77.97 384C78.13 383.967 78.31 383.903 78.51 383.81L78.67 384.8ZM79.31 382.69C79.31 382.277 79.3733 381.913 79.5 381.6C79.6267 381.287 79.7933 381.027 80 380.82C80.2067 380.607 80.4433 380.447 80.71 380.34C80.9767 380.233 81.25 380.18 81.53 380.18C82.2233 380.18 82.75 380.387 83.11 380.8C83.47 381.207 83.65 381.803 83.65 382.59C83.65 382.67 83.6467 382.753 83.64 382.84C83.64 382.927 83.6367 382.997 83.63 383.05H80.58C80.58 383.357 80.7067 383.6 80.96 383.78C81.2133 383.953 81.54 384.04 81.94 384.04C82.1867 384.04 82.42 384.013 82.64 383.96C82.8667 383.907 83.0567 383.853 83.21 383.8L83.38 384.85C83.1667 384.923 82.94 384.983 82.7 385.03C82.46 385.083 82.19 385.11 81.89 385.11C81.49 385.11 81.13 385.06 80.81 384.96C80.4967 384.853 80.2267 384.7 80 384.5C79.78 384.293 79.61 384.04 79.49 383.74C79.37 383.44 79.31 383.09 79.31 382.69ZM82.46 382.2C82.46 382.073 82.4433 381.953 82.41 381.84C82.3767 381.72 82.3233 381.613 82.25 381.52C82.1767 381.427 82.0833 381.353 81.97 381.3C81.8567 381.24 81.7167 381.21 81.55 381.21C81.39 381.21 81.25 381.237 81.13 381.29C81.0167 381.343 80.92 381.417 80.84 381.51C80.7667 381.603 80.7067 381.71 80.66 381.83C80.62 381.95 80.5933 382.073 80.58 382.2H82.46ZM80.96 378.09L82.54 379.2L82.09 379.87L80.35 379.03L80.96 378.09ZM88.37 381.55C88.29 381.53 88.1933 381.51 88.08 381.49C87.9733 381.47 87.8633 381.453 87.75 381.44C87.6367 381.42 87.5267 381.407 87.42 381.4C87.3133 381.393 87.2233 381.39 87.15 381.39C86.9767 381.39 86.8067 381.4 86.64 381.42C86.4733 381.433 86.3033 381.463 86.13 381.51V385H84.89V380.61C85.2167 380.49 85.55 380.393 85.89 380.32C86.2367 380.247 86.64 380.21 87.1 380.21C87.1667 380.21 87.26 380.213 87.38 380.22C87.5067 380.227 87.64 380.24 87.78 380.26C87.92 380.273 88.06 380.293 88.2 380.32C88.3467 380.34 88.4767 380.37 88.59 380.41L88.37 381.55ZM89.31 382.69C89.31 382.277 89.3733 381.913 89.5 381.6C89.6267 381.287 89.7933 381.027 90 380.82C90.2067 380.607 90.4433 380.447 90.71 380.34C90.9767 380.233 91.25 380.18 91.53 380.18C92.2233 380.18 92.75 380.387 93.11 380.8C93.47 381.207 93.65 381.803 93.65 382.59C93.65 382.67 93.6467 382.753 93.64 382.84C93.64 382.927 93.6367 382.997 93.63 383.05H90.58C90.58 383.357 90.7067 383.6 90.96 383.78C91.2133 383.953 91.54 384.04 91.94 384.04C92.1867 384.04 92.42 384.013 92.64 383.96C92.8667 383.907 93.0567 383.853 93.21 383.8L93.38 384.85C93.1667 384.923 92.94 384.983 92.7 385.03C92.46 385.083 92.19 385.11 91.89 385.11C91.49 385.11 91.13 385.06 90.81 384.96C90.4967 384.853 90.2267 384.7 90 384.5C89.78 384.293 89.61 384.04 89.49 383.74C89.37 383.44 89.31 383.09 89.31 382.69ZM92.46 382.2C92.46 382.073 92.4433 381.953 92.41 381.84C92.3767 381.72 92.3233 381.613 92.25 381.52C92.1767 381.427 92.0833 381.353 91.97 381.3C91.8567 381.24 91.7167 381.21 91.55 381.21C91.39 381.21 91.25 381.237 91.13 381.29C91.0167 381.343 90.92 381.417 90.84 381.51C90.7667 381.603 90.7067 381.71 90.66 381.83C90.62 381.95 90.5933 382.073 90.58 382.2H92.46ZM96.28 384.07C96.58 384.07 96.81 384.05 96.97 384.01C97.13 383.963 97.21 383.873 97.21 383.74C97.21 383.653 97.1833 383.58 97.13 383.52C97.0833 383.46 97.0133 383.41 96.92 383.37C96.8333 383.323 96.73 383.28 96.61 383.24C96.4967 383.2 96.3767 383.16 96.25 383.12C96.07 383.067 95.8867 383.007 95.7 382.94C95.5133 382.867 95.3433 382.777 95.19 382.67C95.0367 382.563 94.91 382.43 94.81 382.27C94.71 382.103 94.66 381.897 94.66 381.65C94.66 381.45 94.6967 381.263 94.77 381.09C94.85 380.91 94.97 380.753 95.13 380.62C95.2967 380.48 95.5067 380.373 95.76 380.3C96.0133 380.22 96.3167 380.18 96.67 380.18C96.9767 380.18 97.26 380.203 97.52 380.25C97.7867 380.297 98.0167 380.363 98.21 380.45L98.02 381.49C97.9067 381.457 97.73 381.403 97.49 381.33C97.25 381.25 96.98 381.21 96.68 381.21C96.3667 381.21 96.1533 381.25 96.04 381.33C95.9333 381.403 95.88 381.483 95.88 381.57C95.88 381.643 95.9033 381.71 95.95 381.77C96.0033 381.823 96.07 381.873 96.15 381.92C96.2367 381.967 96.3333 382.013 96.44 382.06C96.5533 382.1 96.6733 382.14 96.8 382.18C96.98 382.24 97.1667 382.307 97.36 382.38C97.5533 382.453 97.7267 382.547 97.88 382.66C98.04 382.767 98.17 382.907 98.27 383.08C98.37 383.247 98.42 383.453 98.42 383.7C98.42 383.893 98.3833 384.077 98.31 384.25C98.2367 384.423 98.1133 384.573 97.94 384.7C97.7733 384.827 97.5533 384.927 97.28 385C97.0067 385.073 96.67 385.11 96.27 385.11C95.8633 385.11 95.5167 385.063 95.23 384.97C94.9433 384.877 94.7133 384.793 94.54 384.72L94.73 383.69C94.9633 383.783 95.21 383.87 95.47 383.95C95.7367 384.03 96.0067 384.07 96.28 384.07Z" fill="white"/>
<path d="M365.96 385.13C365.087 385.13 364.42 384.85 363.96 384.29C363.5 383.73 363.27 382.933 363.27 381.9C363.27 381.387 363.34 380.93 363.48 380.53C363.62 380.13 363.813 379.793 364.06 379.52C364.313 379.24 364.61 379.03 364.95 378.89C365.297 378.743 365.673 378.67 366.08 378.67C366.3 378.67 366.497 378.69 366.67 378.73C366.85 378.763 367.007 378.803 367.14 378.85C367.273 378.897 367.383 378.947 367.47 379C367.563 379.053 367.633 379.093 367.68 379.12L367.36 380.1C367.207 380 367.02 379.917 366.8 379.85C366.587 379.777 366.34 379.74 366.06 379.74C365.867 379.74 365.677 379.777 365.49 379.85C365.31 379.917 365.147 380.033 365 380.2C364.86 380.36 364.743 380.577 364.65 380.85C364.563 381.123 364.52 381.463 364.52 381.87C364.52 382.577 364.64 383.12 364.88 383.5C365.127 383.873 365.527 384.06 366.08 384.06C366.4 384.06 366.663 384.023 366.87 383.95C367.083 383.877 367.253 383.803 367.38 383.73L367.69 384.7C367.517 384.807 367.28 384.907 366.98 385C366.687 385.087 366.347 385.13 365.96 385.13ZM369.77 384C369.803 384.007 369.84 384.01 369.88 384.01C369.92 384.01 369.957 384.01 369.99 384.01C370.27 384.01 370.503 383.957 370.69 383.85C370.883 383.743 371.037 383.597 371.15 383.41C371.27 383.223 371.353 383.003 371.4 382.75C371.453 382.49 371.48 382.207 371.48 381.9C371.48 381.633 371.46 381.373 371.42 381.12C371.38 380.867 371.31 380.643 371.21 380.45C371.11 380.257 370.973 380.103 370.8 379.99C370.627 379.87 370.403 379.81 370.13 379.81C370.077 379.81 370.017 379.813 369.95 379.82C369.883 379.82 369.823 379.827 369.77 379.84V384ZM372.73 381.9C372.73 382.473 372.657 382.963 372.51 383.37C372.37 383.77 372.173 384.097 371.92 384.35C371.667 384.603 371.363 384.79 371.01 384.91C370.663 385.023 370.28 385.08 369.86 385.08C369.64 385.08 369.423 385.067 369.21 385.04C369.003 385.02 368.78 384.983 368.54 384.93V378.89C368.82 378.83 369.083 378.79 369.33 378.77C369.577 378.75 369.807 378.74 370.02 378.74C370.427 378.74 370.797 378.8 371.13 378.92C371.47 379.04 371.757 379.23 371.99 379.49C372.223 379.743 372.403 380.07 372.53 380.47C372.663 380.863 372.73 381.34 372.73 381.9ZM376.12 379.74C375.827 379.74 375.58 379.793 375.38 379.9C375.18 380.007 375.013 380.157 374.88 380.35C374.753 380.537 374.66 380.763 374.6 381.03C374.547 381.29 374.52 381.58 374.52 381.9C374.52 382.64 374.637 383.187 374.87 383.54C375.103 383.887 375.447 384.06 375.9 384.06C375.973 384.06 376.053 384.057 376.14 384.05C376.227 384.043 376.307 384.033 376.38 384.02V381.76H377.61V384.85C377.463 384.903 377.233 384.963 376.92 385.03C376.613 385.097 376.24 385.13 375.8 385.13C375.413 385.13 375.063 385.063 374.75 384.93C374.443 384.79 374.18 384.587 373.96 384.32C373.74 384.047 373.57 383.71 373.45 383.31C373.33 382.903 373.27 382.433 373.27 381.9C373.27 381.373 373.34 380.91 373.48 380.51C373.62 380.103 373.81 379.763 374.05 379.49C374.29 379.217 374.573 379.013 374.9 378.88C375.227 378.74 375.577 378.67 375.95 378.67C376.19 378.67 376.403 378.69 376.59 378.73C376.783 378.763 376.95 378.803 377.09 378.85C377.23 378.897 377.343 378.947 377.43 379C377.523 379.053 377.593 379.093 377.64 379.12L377.32 380.1C377.173 380.007 376.993 379.923 376.78 379.85C376.567 379.777 376.347 379.74 376.12 379.74ZM382.46 380.28C382.46 380.567 382.39 380.85 382.25 381.13C382.11 381.403 381.89 381.633 381.59 381.82C381.97 382.04 382.237 382.28 382.39 382.54C382.55 382.8 382.63 383.087 382.63 383.4C382.63 383.6 382.59 383.803 382.51 384.01C382.437 384.217 382.313 384.403 382.14 384.57C381.973 384.73 381.753 384.863 381.48 384.97C381.207 385.077 380.87 385.13 380.47 385.13C380.157 385.13 379.87 385.09 379.61 385.01C379.357 384.937 379.137 384.83 378.95 384.69C378.77 384.543 378.63 384.367 378.53 384.16C378.43 383.947 378.38 383.71 378.38 383.45C378.38 383.137 378.453 382.843 378.6 382.57C378.747 382.29 378.977 382.043 379.29 381.83C378.997 381.63 378.797 381.417 378.69 381.19C378.583 380.963 378.53 380.723 378.53 380.47C378.53 380.27 378.563 380.063 378.63 379.85C378.703 379.63 378.817 379.433 378.97 379.26C379.123 379.087 379.327 378.943 379.58 378.83C379.833 378.717 380.147 378.66 380.52 378.66C381.113 378.66 381.583 378.807 381.93 379.1C382.283 379.393 382.46 379.787 382.46 380.28ZM381.47 383.38C381.47 383.247 381.443 383.13 381.39 383.03C381.343 382.93 381.263 382.84 381.15 382.76C381.043 382.673 380.903 382.59 380.73 382.51C380.557 382.423 380.35 382.333 380.11 382.24C379.923 382.393 379.78 382.567 379.68 382.76C379.58 382.947 379.53 383.127 379.53 383.3C379.53 383.567 379.623 383.77 379.81 383.91C380.003 384.043 380.23 384.11 380.49 384.11C380.79 384.11 381.027 384.04 381.2 383.9C381.38 383.753 381.47 383.58 381.47 383.38ZM380.5 379.68C380.287 379.68 380.097 379.74 379.93 379.86C379.77 379.98 379.69 380.157 379.69 380.39C379.69 380.623 379.767 380.813 379.92 380.96C380.073 381.107 380.343 381.26 380.73 381.42C380.937 381.267 381.083 381.1 381.17 380.92C381.257 380.733 381.3 380.553 381.3 380.38C381.3 380.147 381.22 379.973 381.06 379.86C380.907 379.74 380.72 379.68 380.5 379.68ZM387.34 380.44C387.34 380.653 387.3 380.86 387.22 381.06C387.14 381.253 387.033 381.443 386.9 381.63C386.767 381.817 386.617 381.997 386.45 382.17C386.283 382.343 386.113 382.51 385.94 382.67C385.853 382.75 385.753 382.847 385.64 382.96C385.527 383.067 385.42 383.18 385.32 383.3C385.22 383.413 385.133 383.53 385.06 383.65C384.993 383.77 384.96 383.88 384.96 383.98H387.62V385H383.58C383.56 384.933 383.55 384.85 383.55 384.75C383.557 384.65 383.56 384.58 383.56 384.54C383.56 384.207 383.62 383.9 383.74 383.62C383.867 383.34 384.023 383.083 384.21 382.85C384.403 382.61 384.607 382.39 384.82 382.19C385.04 381.983 385.243 381.787 385.43 381.6C385.623 381.413 385.78 381.233 385.9 381.06C386.027 380.887 386.09 380.71 386.09 380.53C386.09 380.277 386.013 380.083 385.86 379.95C385.707 379.81 385.513 379.74 385.28 379.74C385.087 379.74 384.883 379.787 384.67 379.88C384.457 379.973 384.247 380.13 384.04 380.35L383.43 379.49C383.697 379.21 384.003 379.003 384.35 378.87C384.703 378.737 385.053 378.67 385.4 378.67C385.653 378.67 385.897 378.707 386.13 378.78C386.363 378.853 386.57 378.963 386.75 379.11C386.93 379.257 387.073 379.443 387.18 379.67C387.287 379.89 387.34 380.147 387.34 380.44Z" fill="white"/>
</svg>
